<svg width="778" height="556" viewBox="0 0 778 556" fill="none" xmlns="http://www.w3.org/2000/svg">
<mask id="mask0_3909_655" style="mask-type:alpha" maskUnits="userSpaceOnUse" x="0" y="0" width="778" height="556">
<path d="M0 0H453.766C632.771 0 777.884 124.409 777.884 277.876V555.753H0V0Z" fill="white"/>
<path fill-rule="evenodd" clip-rule="evenodd" d="M778 356.376H777.884V362.629C777.884 360.537 777.923 358.452 778 356.376Z" fill="white"/>
</mask>
<g mask="url(#mask0_3909_655)">
<path d="M-239.849 -6.25226L-151.679 560.615L234.985 560.615L-22.7689 -6.25226L-239.849 -6.25226Z" fill="url(#paint0_linear_3909_655)"/>
<path d="M315.329 559.226L100.475 88.8135L308.057 44.5802L539.447 -2.77875L618.553 -2.77875L573.284 81.4645L761.676 559.132L315.329 559.226Z" fill="#083D5C"/>
<path d="M-31.5301 -13.1992L56.4569 171.452L-152.336 560.615L316.702 560.615L278.944 479.426L540.467 -3.39371L-31.5301 -13.1992Z" fill="#4298CA" fill-opacity="0.55"/>
<path d="M635.979 -33.6475L316.016 559.226L1008.72 559.226L1382.37 -161.168L635.979 -33.6475Z" fill="#1E6E9C"/>
<path d="M540.466 -2.95813L540.301 -3.47345L52.668 -3.47345L279.146 480.031L540.466 -2.95813Z" fill="url(#paint1_linear_3909_655)"/>
<path d="M-152.336 560.615H234.986L56.4847 171.589L-152.336 560.615Z" fill="url(#paint2_linear_3909_655)"/>
<path d="M316.016 559.226H719.543L549.464 125.739L316.016 559.226Z" fill="url(#paint3_linear_3909_655)"/>
</g>
<defs>
<linearGradient id="paint0_linear_3909_655" x1="-45.1899" y1="560.615" x2="-45.1899" y2="102.461" gradientUnits="userSpaceOnUse">
<stop stop-color="#2B3087"/>
<stop offset="0.714" stop-color="#2F75A8"/>
<stop offset="0.82" stop-color="#3080AD"/>
</linearGradient>
<linearGradient id="paint1_linear_3909_655" x1="320.39" y1="478.642" x2="320.39" y2="-3.47345" gradientUnits="userSpaceOnUse">
<stop stop-color="#0B4262"/>
<stop offset="1" stop-color="#185C83"/>
</linearGradient>
<linearGradient id="paint2_linear_3909_655" x1="41.3248" y1="171.589" x2="41.3248" y2="560.615" gradientUnits="userSpaceOnUse">
<stop stop-color="#185C83"/>
<stop offset="1" stop-color="#083651"/>
</linearGradient>
<linearGradient id="paint3_linear_3909_655" x1="316.016" y1="342.525" x2="719.543" y2="342.525" gradientUnits="userSpaceOnUse">
<stop stop-color="#185C83"/>
<stop offset="1" stop-color="#1B5A7E"/>
</linearGradient>
</defs>
</svg>
