<svg width="424" height="456" viewBox="0 0 424 456" fill="none" xmlns="http://www.w3.org/2000/svg">
<g filter="url(#filter0_b_3930_1219)">
<rect x="0.5" y="0.5" width="423" height="455" rx="19.5" fill="url(#paint0_linear_3930_1219)" fill-opacity="0.2"/>
<rect x="0.5" y="0.5" width="423" height="455" rx="19.5" stroke="url(#paint1_linear_3930_1219)"/>
<path d="M50.3257 221.44C45.8457 221.44 41.6377 220.656 37.7017 219.088C33.7977 217.488 30.3577 215.152 27.3817 212.08C24.4377 209.008 22.1337 205.248 20.4697 200.8C18.8057 196.32 17.9737 191.2 17.9737 185.44C17.9737 177.888 19.3817 171.44 22.1977 166.096C25.0137 160.72 28.8697 156.608 33.7657 153.76C38.6618 150.88 44.1818 149.44 50.3257 149.44C58.8377 149.44 65.5737 151.424 70.5338 155.392C75.5258 159.328 78.9018 164.864 80.6618 172L68.8537 173.872C67.5417 169.776 65.3977 166.512 62.4218 164.08C59.4458 161.616 55.6538 160.384 51.0457 160.384C46.4057 160.32 42.5497 161.328 39.4777 163.408C36.4057 165.488 34.0857 168.416 32.5177 172.192C30.9817 175.968 30.2137 180.384 30.2137 185.44C30.2137 190.496 30.9817 194.896 32.5177 198.64C34.0537 202.352 36.3577 205.248 39.4297 207.328C42.5337 209.408 46.4057 210.48 51.0457 210.544C54.5337 210.576 57.5897 209.952 60.2137 208.672C62.8377 207.36 64.9817 205.392 66.6457 202.768C68.3097 200.112 69.4297 196.8 70.0057 192.832L57.8137 192.832L57.8137 183.76L82.2938 183.76C82.3578 184.272 82.4058 185.024 82.4378 186.016C82.4698 187.008 82.4857 187.6 82.4857 187.792C82.4857 194.32 81.1897 200.128 78.5977 205.216C76.0377 210.272 72.3577 214.24 67.5577 217.12C62.7577 220 57.0137 221.44 50.3257 221.44ZM111.326 220L111.326 150.88L155.966 150.88L155.966 161.728L122.894 161.728L122.894 178.768L150.206 178.768L150.206 189.616L122.894 189.616L122.894 209.152L155.966 209.152L155.966 220L111.326 220ZM203.29 220L203.29 161.728L180.922 161.728L180.922 150.88L237.226 150.88L237.226 161.728L214.858 161.728L214.858 220L203.29 220ZM300.574 220L300.574 150.88L312.142 150.88L312.142 220L300.574 220ZM345.72 220L345.72 150.88L357.432 150.88L389.496 199.6L389.496 150.88L401.208 150.88L401.208 220L389.496 220L357.432 171.28L357.432 220L345.72 220Z" fill="white" fill-opacity="0.4"/>
<path d="M40.988 330L40.988 264.77L16.018 264.77L16.018 250.8L80.918 250.8L80.918 264.77L55.948 264.77L55.948 330L40.988 330ZM123.747 331.65C115.827 331.65 108.988 329.927 103.232 326.48C97.5116 323.033 93.0933 318.212 89.9766 312.015C86.8966 305.818 85.3566 298.613 85.3566 290.4C85.3566 282.187 86.8966 274.982 89.9766 268.785C93.0933 262.588 97.5116 257.767 103.232 254.32C108.988 250.873 115.827 249.15 123.747 249.15C131.667 249.15 138.487 250.873 144.207 254.32C149.963 257.767 154.382 262.588 157.462 268.785C160.578 274.982 162.137 282.187 162.137 290.4C162.137 298.613 160.578 305.818 157.462 312.015C154.382 318.212 149.963 323.033 144.207 326.48C138.487 329.927 131.667 331.65 123.747 331.65ZM123.747 317.57C128.77 317.643 132.95 316.562 136.287 314.325C139.623 312.088 142.117 308.917 143.767 304.81C145.453 300.703 146.297 295.9 146.297 290.4C146.297 284.9 145.453 280.133 143.767 276.1C142.117 272.067 139.623 268.932 136.287 266.695C132.95 264.458 128.77 263.303 123.747 263.23C118.723 263.157 114.543 264.238 111.207 266.475C107.87 268.712 105.358 271.883 103.672 275.99C102.022 280.097 101.197 284.9 101.197 290.4C101.197 295.9 102.022 300.667 103.672 304.7C105.358 308.733 107.87 311.868 111.207 314.105C114.543 316.342 118.723 317.497 123.747 317.57ZM205.346 331.65C198.966 331.65 193.356 330.367 188.516 327.8C183.676 325.197 179.899 321.548 177.186 316.855C174.473 312.162 173.116 306.643 173.116 300.3L173.116 250.91L188.296 250.8L188.296 300.19C188.296 302.793 188.736 305.158 189.616 307.285C190.496 309.412 191.706 311.245 193.246 312.785C194.823 314.325 196.638 315.517 198.691 316.36C200.781 317.167 202.999 317.57 205.346 317.57C207.766 317.57 210.003 317.148 212.056 316.305C214.146 315.462 215.961 314.27 217.501 312.73C219.041 311.19 220.233 309.357 221.076 307.23C221.956 305.103 222.396 302.757 222.396 300.19L222.396 250.8L237.576 250.8L237.576 300.3C237.576 306.643 236.219 312.162 233.506 316.855C230.793 321.548 227.016 325.197 222.176 327.8C217.336 330.367 211.726 331.65 205.346 331.65ZM286.92 331.65C279 331.65 272.162 329.927 266.405 326.48C260.685 323.033 256.267 318.212 253.15 312.015C250.07 305.818 248.53 298.613 248.53 290.4C248.53 282.187 250.07 274.982 253.15 268.785C256.267 262.588 260.685 257.767 266.405 254.32C272.162 250.873 279 249.15 286.92 249.15C296.014 249.15 303.64 251.405 309.8 255.915C315.997 260.425 320.36 266.53 322.89 274.23L307.82 278.41C306.354 273.607 303.879 269.885 300.395 267.245C296.912 264.568 292.42 263.23 286.92 263.23C281.897 263.23 277.699 264.348 274.325 266.585C270.989 268.822 268.477 271.975 266.79 276.045C265.104 280.115 264.26 284.9 264.26 290.4C264.26 295.9 265.104 300.685 266.79 304.755C268.477 308.825 270.989 311.978 274.325 314.215C277.699 316.452 281.897 317.57 286.92 317.57C292.42 317.57 296.912 316.232 300.395 313.555C303.879 310.878 306.354 307.157 307.82 302.39L322.89 306.57C320.36 314.27 315.997 320.375 309.8 324.885C303.64 329.395 296.014 331.65 286.92 331.65ZM335.001 330L335.001 250.8L349.961 250.8L349.961 283.36L385.381 283.36L385.381 250.8L400.341 250.8L400.341 330L385.381 330L385.381 297.33L349.961 297.33L349.961 330L335.001 330Z" fill="white" fill-opacity="0.6"/>
</g>
<defs>
<filter id="filter0_b_3930_1219" x="-200" y="-200" width="824" height="856" filterUnits="userSpaceOnUse" color-interpolation-filters="sRGB">
<feFlood flood-opacity="0" result="BackgroundImageFix"/>
<feGaussianBlur in="BackgroundImageFix" stdDeviation="100"/>
<feComposite in2="SourceAlpha" operator="in" result="effect1_backgroundBlur_3930_1219"/>
<feBlend mode="normal" in="SourceGraphic" in2="effect1_backgroundBlur_3930_1219" result="shape"/>
</filter>
<linearGradient id="paint0_linear_3930_1219" x1="212" y1="10" x2="212" y2="456" gradientUnits="userSpaceOnUse">
<stop offset="0.365841" stop-color="#FED21C"/>
<stop offset="1" stop-color="#05141D"/>
</linearGradient>
<linearGradient id="paint1_linear_3930_1219" x1="212" y1="0" x2="212" y2="456" gradientUnits="userSpaceOnUse">
<stop stop-color="#FFF6D0"/>
<stop offset="1" stop-color="white" stop-opacity="0"/>
</linearGradient>
</defs>
</svg>
