<svg width="93" height="29" viewBox="0 0 93 29" fill="none" xmlns="http://www.w3.org/2000/svg">
<g filter="url(#filter0_b_154_173)">
<rect x="0.25" y="0.25" width="92.5" height="28.5" rx="4.75" fill="#185C83" fill-opacity="0.2"/>
<rect x="0.25" y="0.25" width="92.5" height="28.5" rx="4.75" stroke="url(#paint0_linear_154_173)" stroke-width="0.5"/>
<g clip-path="url(#clip0_154_173)">
<path d="M16.9613 21.2313C16.7226 21.2313 19.87 21.015 22.006 19.0077C22.9635 18.1079 23.4885 17.0564 23.794 16.2083C23.7897 17.8821 23.7859 19.556 23.7815 21.2298L16.9613 21.2313Z" fill="#FDD21C"/>
<path d="M22.5276 8.41766C22.019 7.32264 21.2665 6.42903 20.3474 5.67127C19.9394 5.33449 19.4832 5.03981 19.0117 4.79679C17.5378 4.03473 15.961 3.85868 14.3332 4.1017C13.1985 4.27105 12.0654 4.91973 11.6973 5.1063C11.5443 5.1838 11.4196 5.25077 11.3364 5.29622C10.9639 4.86854 10.5915 4.44135 10.2186 4.01368C9.14606 4.01272 8.07351 4.01081 7.00096 4.00937C7.00096 11.0062 7 18.003 7 24.9993C8.07447 24.9993 9.14942 24.9993 10.2239 24.9988C10.2412 22.3553 10.2581 19.7118 10.2754 17.0687C10.3745 17.1783 10.4736 17.2878 10.5728 17.3974C10.5728 17.3974 10.8157 17.6844 11.0448 17.8977C11.5284 18.3489 12.0865 18.701 12.7039 18.9612C14.0387 19.5238 15.4461 19.6649 16.8622 19.418C19.7349 18.9172 21.7178 17.2347 22.7543 14.5792C23.5492 12.5418 23.4703 10.447 22.5281 8.41814L22.5276 8.41766ZM15.7363 16.3033C13.1451 16.3033 11.0448 14.2152 11.0448 11.6391C11.0448 9.063 13.1451 6.97486 15.7363 6.97486C18.3274 6.97486 20.4278 9.063 20.4278 11.6391C20.4278 14.2152 18.3274 16.3033 15.7363 16.3033Z" fill="white"/>
<path d="M37.1757 4.00536C36.8533 4.42155 36.5309 4.83775 36.2085 5.25394C35.7509 4.98317 35.3506 4.79947 35.0609 4.6794C33.2156 3.91543 31.6773 4.0001 31.3582 4.02306C31.0849 4.04267 30.8723 4.07233 30.739 4.09195C28.0261 4.4847 26.1658 6.04566 24.9432 8.41269C24.5395 9.19437 24.3634 10.055 24.2936 10.9333C24.156 12.6626 24.4009 14.3044 25.3329 15.8147C25.9017 16.7365 26.6239 17.5106 27.4973 18.1372C27.6075 18.2162 28.1695 18.6084 28.8884 18.916C30.6148 19.6551 32.3211 19.5068 32.9245 19.448C33.6078 19.381 34.6187 19.205 35.7668 18.7008C36.235 18.4439 36.7032 18.1875 37.1714 17.9306V19.5092H40.4434C40.4756 14.3427 40.5074 9.17619 40.5396 4.00967C39.4185 4.00823 38.2973 4.0068 37.1762 4.00488L37.1757 4.00536ZM31.9525 16.3036C29.3614 16.3036 27.261 14.2155 27.261 11.6394C27.261 9.06329 29.3614 6.97515 31.9525 6.97515C34.5436 6.97515 36.644 9.06329 36.644 11.6394C36.644 14.2155 34.5436 16.3036 31.9525 16.3036Z" fill="white"/>
<path d="M81.6366 4.00536C81.3142 4.42155 80.9919 4.83775 80.6695 5.25394C80.2119 4.98317 79.8115 4.79947 79.5219 4.6794C77.6765 3.91543 76.1382 4.0001 75.8192 4.02306C75.5459 4.04267 75.3332 4.07233 75.1999 4.09195C72.487 4.4847 70.6268 6.04566 69.4041 8.41269C69.0004 9.19437 68.8243 10.055 68.7545 10.9333C68.6169 12.6626 68.8618 14.3044 69.7939 15.8147C70.3626 16.7365 71.0849 17.5106 71.9582 18.1372C72.0684 18.2162 72.6304 18.6084 73.3493 18.916C75.0758 19.6551 76.782 19.5068 77.3854 19.448C78.0687 19.381 79.0796 19.205 80.2277 18.7008C80.6959 18.4439 81.1641 18.1875 81.6323 17.9306V19.5092H84.9043C84.9366 14.3427 84.9683 9.17619 85.0005 4.00967C83.8794 4.00823 82.7583 4.0068 81.6371 4.00488L81.6366 4.00536ZM76.4134 16.3036C73.8223 16.3036 71.7219 14.2155 71.7219 11.6394C71.7219 9.06329 73.8223 6.97515 76.4134 6.97515C79.0046 6.97515 81.1049 9.06329 81.1049 11.6394C81.1049 14.2155 79.0046 16.3036 76.4134 16.3036Z" fill="#FDD21C"/>
<path d="M43.6669 24.9626V21.9966C44.1822 21.9354 45.0301 21.7622 45.8909 21.2135C46.4519 20.8562 46.8056 20.4749 47.0101 20.251C47.3412 19.8893 47.5279 19.5975 47.6607 19.3172C47.831 18.9575 47.8604 18.725 47.8507 18.537C47.8401 18.3313 47.7853 18.1767 47.7579 18.1165C47.2954 17.1052 46.848 16.0867 46.3937 15.0716C45.9496 14.0794 45.5035 13.0882 45.0589 12.096C44.661 11.2082 44.2635 10.3193 43.8656 9.43144C43.4316 8.46224 42.9995 7.49256 42.564 6.52384C42.2325 5.78618 41.8966 5.0509 41.5651 4.31324C41.5252 4.22378 41.4987 4.12858 41.4597 4.01855H45.0604C45.1961 4.34194 45.3313 4.66724 45.4679 4.99158C46.0872 6.45878 46.706 7.92646 47.3272 9.39269C47.7266 10.3351 48.1284 11.2766 48.5306 12.218C48.8482 12.9619 49.1682 13.7043 49.4882 14.4473C49.5074 14.4918 49.5373 14.5319 49.5883 14.6185C49.7398 14.2545 49.8885 13.9325 50.0093 13.6001C50.3375 12.6969 50.6488 11.788 50.975 10.8838C51.3994 9.70699 51.831 8.53304 52.2612 7.35862C52.6351 6.33823 53.0114 5.31927 53.3867 4.29936C53.4209 4.20656 53.4579 4.11519 53.495 4.01903H56.9758C56.1164 6.40903 55.4052 8.28476 54.9058 9.57783C54.6681 10.1935 54.4819 10.6661 53.7678 12.5103C53.3347 13.6297 52.9031 14.7496 52.471 15.869C52.0841 16.8708 51.7141 17.8792 51.3046 18.8718C51.0159 19.5717 50.708 20.2682 50.3471 20.9332C49.8038 21.933 49.0816 22.7955 48.1418 23.4629C47.6693 23.7982 47.2709 23.9814 46.9682 24.1216C46.2677 24.4455 45.1566 24.8502 43.6678 24.9616L43.6669 24.9626Z" fill="white"/>
<path d="M67.8821 7.06653C66.9309 7.57983 66.0205 8.07065 65.1149 8.55908C64.9484 8.33377 64.7959 8.11993 64.6361 7.91231C64.1164 7.23684 63.3812 6.98951 62.5714 6.91488C62.0214 6.86418 61.4786 6.9211 60.9565 7.12202C60.2199 7.40523 59.8335 8.08931 60.0293 8.77627C60.1337 9.14223 60.3786 9.40438 60.7073 9.55938C61.1995 9.79092 61.7019 10.0114 62.2196 10.176C63.0184 10.4296 63.8398 10.6109 64.64 10.8601C65.6071 11.161 66.5103 11.5978 67.2436 12.3125C67.7205 12.777 67.9962 13.363 68.1141 14.0117C68.2613 14.8211 68.2252 15.6277 67.963 16.4122C67.6228 17.4307 66.8895 18.1162 65.9757 18.6223C64.5105 19.4341 62.9265 19.6188 61.2799 19.4652C60.3325 19.3772 59.4288 19.1533 58.5781 18.7209C57.6884 18.2683 56.9373 17.6636 56.4017 16.8145C56.254 16.5801 56.1202 16.3376 55.9614 16.0682C56.919 15.5325 57.8645 15.0034 58.8278 14.4642C58.8913 14.6073 58.9361 14.7096 58.9827 14.8115C59.3715 15.664 60.0404 16.1912 60.9397 16.4227C61.8183 16.649 62.7047 16.638 63.5867 16.4227C64.0982 16.2979 64.4922 16.0175 64.7102 15.5344C64.8849 15.1478 64.9113 14.768 64.6376 14.3915C64.3402 13.9835 63.9447 13.7098 63.4822 13.5577C62.6753 13.2922 61.8578 13.0573 61.0374 12.8349C60.0741 12.5737 59.1526 12.212 58.3024 11.6977C57.186 11.0227 56.5855 10.0296 56.5975 8.71312C56.6014 8.31032 56.6187 7.89892 56.7015 7.50664C56.9373 6.39249 57.62 5.58785 58.568 4.9827C60.0134 4.0599 61.6042 3.88194 63.2652 4.08191C64.8748 4.27565 66.2201 4.97983 67.2802 6.1997C67.501 6.4542 67.668 6.75511 67.8821 7.06701V7.06653Z" fill="#FDD21C"/>
</g>
</g>
<defs>
<filter id="filter0_b_154_173" x="-10" y="-10" width="113" height="49" filterUnits="userSpaceOnUse" color-interpolation-filters="sRGB">
<feFlood flood-opacity="0" result="BackgroundImageFix"/>
<feGaussianBlur in="BackgroundImageFix" stdDeviation="5"/>
<feComposite in2="SourceAlpha" operator="in" result="effect1_backgroundBlur_154_173"/>
<feBlend mode="normal" in="SourceGraphic" in2="effect1_backgroundBlur_154_173" result="shape"/>
</filter>
<linearGradient id="paint0_linear_154_173" x1="46.5" y1="0" x2="46.5" y2="29" gradientUnits="userSpaceOnUse">
<stop stop-color="#4298CA" stop-opacity="0.35"/>
<stop offset="1" stop-opacity="0"/>
</linearGradient>
<clipPath id="clip0_154_173">
<rect width="78" height="21" fill="white" transform="translate(7 4)"/>
</clipPath>
</defs>
</svg>
