<?xml version="1.0" encoding="UTF-8"?>
<svg id="Social_Media_Icon" data-name="Social Media Icon" xmlns="http://www.w3.org/2000/svg" viewBox="0 0 149.11 149.11">
  <defs>
    <style>
      .cls-1 {
        fill: #000;
      }

      .cls-1, .cls-2 {
        stroke-width: 0px;
      }

      .cls-2 {
        fill: #fff;
      }
    </style>
  </defs>
  <rect class="cls-2" x="0" width="149.11" height="149.11" rx="25.02" ry="25.02"/>
  <g id="Facebook_2" data-name="Facebook 2">
    <path class="cls-1" d="M115.4,74.8c0-22.89-18.82-41.38-41.83-40.83-22.24.53-40.12,19.1-39.85,41.35.25,20.16,15.1,36.8,34.46,39.83v-28.54h-10.37v-11.81h10.37v-9c0-10.24,6.1-15.89,15.43-15.89,4.47,0,9.14.8,9.14.8v10.05h-5.15c-5.07,0-6.66,3.15-6.66,6.38v7.66h11.33l-1.81,11.81h-9.52v28.54c19.53-3.06,34.46-19.96,34.46-40.35Z"/>
  </g>
</svg>