<?xml version="1.0" encoding="UTF-8"?>
<svg id="Social_Media_Icon" data-name="Social Media Icon" xmlns="http://www.w3.org/2000/svg" viewBox="0 0 149.11 149.11">
  <defs>
    <style>
      .cls-1 {
        fill: #000;
      }

      .cls-1, .cls-2 {
        stroke-width: 0px;
      }

      .cls-2 {
        fill: #fff;
      }
    </style>
  </defs>
  <rect class="cls-2" x="0" width="149.11" height="149.11" rx="25.02" ry="25.02"/>
  <g>
    <circle class="cls-1" cx="96.14" cy="52.84" r="5.07"/>
    <path class="cls-1" d="M74.55,94.85c11.21,0,20.3-9.09,20.3-20.3s-9.09-20.3-20.3-20.3-20.3,9.09-20.3,20.3,9.09,20.3,20.3,20.3ZM74.55,61.36c7.28,0,13.19,5.91,13.19,13.19,0,7.29-5.91,13.19-13.19,13.19s-13.19-5.91-13.19-13.19,5.91-13.19,13.19-13.19Z"/>
    <path class="cls-1" d="M54.26,115.15h40.6c11.21,0,20.3-9.09,20.3-20.3v-40.6c0-11.21-9.09-20.3-20.3-20.3h-40.6c-11.21,0-20.3,9.09-20.3,20.3v40.6c0,11.21,9.09,20.3,20.3,20.3ZM41.06,54.26c0-7.28,5.91-13.19,13.19-13.19h40.6c7.28,0,13.19,5.91,13.19,13.19v40.6c0,7.28-5.91,13.19-13.19,13.19h-40.6c-7.28,0-13.19-5.91-13.19-13.19v-40.6Z"/>
  </g>
</svg>