<?xml version="1.0" encoding="UTF-8"?>
<svg id="Social_Media_Icon" data-name="Social Media Icon" xmlns="http://www.w3.org/2000/svg" viewBox="0 0 149.11 149.11">
  <defs>
    <style>
      .cls-1 {
        fill: #000;
      }

      .cls-1, .cls-2 {
        stroke-width: 0px;
      }

      .cls-2 {
        fill: #fff;
      }
    </style>
  </defs>
  <rect class="cls-2" x="0" width="149.11" height="149.11" rx="25.02" ry="25.02"/>
  <g>
    <path class="cls-1" d="M78.85,68.19c1.14-1.28,2.08-2.58,3.25-3.68,3.6-3.39,7.85-5.1,12.81-5.06,2.73.02,5.43.22,8.06.98,6.02,1.74,9.52,5.88,11.18,11.76,1.25,4.41,1.48,8.94,1.49,13.48.02,9.58-.03,19.16,0,28.73,0,.9-.25,1.13-1.13,1.12-4.93-.04-9.87-.04-14.8,0-.87,0-1.06-.26-1.05-1.08.03-9.11.03-18.23,0-27.34,0-2.28-.15-4.57-.79-6.79-1.18-4.09-4.11-6.17-8.39-5.95-5.85.31-8.89,3.21-9.64,9.16-.18,1.42-.26,2.84-.26,4.27,0,8.86,0,17.73.02,26.59,0,.88-.22,1.14-1.12,1.14-4.97-.04-9.94-.04-14.91,0-.8,0-1.03-.21-1.03-1.02.02-17.55.02-35.1,0-52.65,0-.87.28-1.07,1.1-1.06,4.72.04,9.44.04,14.16,0,.87,0,1.09.27,1.07,1.1-.05,2.1-.02,4.2-.02,6.29Z"/>
    <path class="cls-1" d="M51.81,88.24c0,8.68-.01,17.36.02,26.04,0,.97-.24,1.26-1.23,1.25-4.93-.05-9.87-.04-14.8,0-.79,0-1.03-.19-1.03-1.01.02-17.58.02-35.15,0-52.73,0-.73.18-.99.95-.98,5,.03,10.01.04,15.01,0,.96,0,1.09.36,1.09,1.19-.02,8.75-.01,17.51-.01,26.26Z"/>
    <path class="cls-1" d="M53.17,43.38c0,5.45-4.42,9.89-9.86,9.89-5.37,0-9.83-4.44-9.85-9.81-.02-5.43,4.44-9.89,9.87-9.89,5.39,0,9.83,4.43,9.84,9.8Z"/>
  </g>
</svg>