<?xml version="1.0" encoding="UTF-8"?>
<svg id="Social_Media_Icon" data-name="Social Media Icon" xmlns="http://www.w3.org/2000/svg" viewBox="0 0 149.11 149.11">
  <defs>
    <style>
      .cls-1 {
        fill: #000;
      }

      .cls-1, .cls-2 {
        stroke-width: 0px;
      }

      .cls-2 {
        fill: #fff;
      }
    </style>
  </defs>
  <rect class="cls-2" x="0" width="149.11" height="149.11" rx="25.02" ry="25.02"/>
  <path class="cls-1" d="M94.01,71.59c-.35-.17-.71-.33-1.07-.48-.63-11.56-6.95-18.18-17.55-18.25h-.14c-6.35,0-11.62,2.71-14.87,7.64l5.84,4c2.43-3.68,6.23-4.47,9.04-4.47h.1c3.49.02,6.13,1.04,7.83,3.02,1.24,1.44,2.07,3.44,2.48,5.95-3.1-.53-6.45-.69-10.03-.48-10.09.58-16.57,6.46-16.14,14.64.22,4.15,2.29,7.71,5.82,10.04,2.98,1.97,6.83,2.93,10.82,2.71,5.28-.29,9.41-2.3,12.3-5.98,2.19-2.79,3.58-6.42,4.19-10.98,2.51,1.52,4.38,3.51,5.41,5.91,1.75,4.08,1.85,10.78-3.62,16.25-4.79,4.79-10.56,6.86-19.26,6.92-9.66-.07-16.96-3.17-21.71-9.21-4.45-5.65-6.75-13.82-6.83-24.27.09-10.45,2.38-18.62,6.83-24.27,4.75-6.04,12.05-9.13,21.71-9.21,9.73.07,17.16,3.18,22.09,9.25,2.42,2.98,4.24,6.72,5.44,11.08l6.84-1.82c-1.46-5.37-3.75-10-6.87-13.83-6.32-7.78-15.57-11.76-27.48-11.84h-.05c-11.89.08-21.03,4.08-27.17,11.89-5.46,6.95-8.28,16.61-8.38,28.73v.06c.09,12.12,2.91,21.79,8.38,28.73,6.14,7.81,15.28,11.81,27.17,11.89h.05c10.57-.07,18.02-2.84,24.16-8.97,8.03-8.02,7.79-18.08,5.14-24.25-1.9-4.43-5.52-8.02-10.47-10.4ZM75.76,88.74c-4.42.25-9.01-1.74-9.24-5.99-.17-3.15,2.24-6.67,9.51-7.09.83-.05,1.65-.07,2.45-.07,2.64,0,5.11.26,7.35.75-.84,10.46-5.75,12.16-10.08,12.4Z"/>
</svg>