<?xml version="1.0" encoding="UTF-8"?>
<svg id="Social_Media_Icon" data-name="Social Media Icon" xmlns="http://www.w3.org/2000/svg" viewBox="0 0 149.11 149.11">
  <defs>
    <style>
      .cls-1 {
        fill: #000;
      }

      .cls-1, .cls-2 {
        stroke-width: 0px;
      }

      .cls-3 {
        fill: none;
        stroke: #000;
        stroke-miterlimit: 10;
      }

      .cls-2 {
        fill: #fff;
      }
    </style>
  </defs>
  <rect class="cls-2" x="0" width="149.11" height="149.11" rx="25.02" ry="25.02"/>
  <g>
    <path class="cls-1" d="M58.06,97.19c.07.06.14.13.21.19.65.46,1.12,1.12,1.74,1.61,1.93,1.55,4.09,2.39,6.57,2.54,5.88.36,11.01-4.06,11.68-9.88.03-.28.02-.57.02-.85,0-17.52,0-35.04,0-52.56q0-1.18,1.18-1.18c2.66,0,5.32,0,7.99,0,.25,0,.51-.05.74.11.01.01.03.03.05.04.13.13.17.3.2.47,1.02,4.72,3.51,8.49,7.4,11.33.24.18.45.4.68.59.17.14.34.29.51.43.63.36,1.07.93,1.62,1.39,2.16,1.8,4.59,3.03,7.3,3.73.24.06.51.06.69.28.01.02.03.03.04.04.16.17.13.38.13.59,0,3.09,0,6.18,0,9.27,0,.71-.1.74-.81.74-2.26,0-4.48-.3-6.68-.81-3.78-.86-7.27-2.4-10.51-4.53-.17-.11-.35-.35-.53-.27-.23.1-.11.4-.11.61,0,8.7.03,17.39-.02,26.09-.04,6.08-1.97,11.52-5.95,16.15-4.23,4.92-9.6,7.78-16.04,8.57-4.97.61-9.68-.29-14.16-2.5-.72-.36-1.42-.77-2.06-1.26-.2-.18-.41-.36-.61-.54-1.54-1.27-2.61-2.92-3.62-4.61-1.54-2.6-2.54-5.41-3.03-8.4-.28-1.71-.42-3.43-.33-5.16.3-5.57,2.18-10.54,5.77-14.83,3.01-3.6,6.77-6.12,11.21-7.63,1.85-.63,3.76-1.02,5.71-1.16.36-.03.72-.11,1.09-.09.17.01.35,0,.5.11.02.02.03.03.05.04.1.17.08.37.08.56,0,3.13,0,6.27,0,9.4,0,.11,0,.22,0,.33-.01.31-.18.42-.47.33-.86-.24-1.74-.36-2.62-.4-1.37-.07-2.73.12-4.01.6-4.31,1.59-6.92,4.68-7.47,9.22-.54,4.48,1.23,8.06,4.96,10.64.31.22.63.42.92.66Z"/>
    <path class="cls-3" d="M49.94,108.12c.17-.05.26.09.38.16,2.8,1.71,5.82,2.82,9.06,3.35,1.63.26,3.27.37,4.92.29,5.51-.29,10.44-2.12,14.71-5.64,4.11-3.39,6.83-7.68,8.2-12.83.43-1.63.67-3.28.75-4.96.05-.97.04-1.93.05-2.9,0-8.29,0-16.57,0-24.86v-.56c.22-.06.31.1.43.18,2.95,2.02,6.14,3.52,9.59,4.46,1.89.52,3.82.87,5.78,1.04.82.07,1.65.06,2.47.12.36.03.36.01.37-.36,0-.4,0-.79,0-1.19,0-2.8,0-5.61,0-8.41,0-.17.01-.35.02-.52.74.08,1.47.24,2.21.3.46.03.92.08,1.38.06.23,0,.32.07.3.3-.01.09,0,.19,0,.28v12.17c0,.08,0,.16,0,.24,0,.35,0,.36-.38.36-1.27,0-2.53-.09-3.79-.25-2.57-.34-5.06-.97-7.48-1.91-2.31-.9-4.49-2.05-6.53-3.46-.13-.09-.26-.17-.45-.29v.57c0,8.86,0,17.71,0,26.57,0,4.72-1.23,9.11-3.74,13.11-3.04,4.83-7.26,8.23-12.63,10.18-3.26,1.18-6.63,1.64-10.09,1.38-5.84-.43-10.89-2.66-15.19-6.62-.12-.11-.21-.23-.32-.35Z"/>
    <path class="cls-3" d="M88.18,37.17c-.17,0-.35.02-.52.02-2.85,0-5.71,0-8.56,0q-.66,0-.66.64c0,17.43,0,34.85,0,52.28,0,1.21-.09,2.41-.47,3.56-1.34,4.08-4.07,6.77-8.26,7.72-4.49,1.02-8.3-.34-11.33-3.82-.05-.06-.08-.13-.13-.2.87.34,1.73.69,2.65.87,2.92.58,5.68.13,8.22-1.43,2.93-1.81,4.66-4.45,5.27-7.83.11-.64.13-1.29.13-1.94,0-17.46,0-34.92,0-52.38,0-.81-.11-.71.7-.71,4.03,0,8.05,0,12.08,0,.1,0,.19,0,.29,0,.41,0,.42,0,.42.42,0,.93-.02,1.87.17,2.79Z"/>
    <path class="cls-3" d="M66.63,65.81c-2.46.08-4.87.47-7.2,1.25-3.38,1.12-6.38,2.88-9,5.3-3.43,3.17-5.78,7-7.06,11.49-.46,1.6-.72,3.23-.84,4.9-.07,1-.09,2-.04,2.99.15,2.76.72,5.44,1.77,8.01,1.18,2.87,2.82,5.44,4.96,7.69.04.04.07.1.11.15-.49-.21-.88-.56-1.28-.88-3.99-3.17-6.81-7.16-8.36-12.02-.54-1.69-.87-3.43-1.04-5.2-.12-1.28-.13-2.57-.05-3.84.19-2.95.89-5.78,2.11-8.47,1.27-2.82,3.01-5.32,5.21-7.48,2.57-2.52,5.55-4.4,8.94-5.62,2.13-.76,4.31-1.23,6.57-1.39,1.63-.12,3.26-.08,4.88.11.22.03.35.07.34.33-.02.9-.02,1.8-.02,2.71Z"/>
    <path class="cls-3" d="M58.06,97.19c-.99-.45-1.85-1.09-2.63-1.84-1.95-1.88-3.12-4.17-3.42-6.87-.63-5.65,2.93-10.53,7.88-12.05,2.11-.65,4.23-.67,6.36-.1.12.03.24.08.37.05.07-.17.04-.35.04-.52,0-3.17,0-6.34,0-9.5,0-.17.02-.35.03-.52,1.22-.08,2.44.03,3.65.16.19.02.24.11.24.28,0,.09,0,.19,0,.29,0,4.2,0,8.39,0,12.59,0,.15.04.32-.06.48-.55-.1-1.1-.27-1.66-.35-3.24-.45-6.17.3-8.74,2.33-2.26,1.78-3.65,4.11-4.11,6.94-.49,3,.13,5.79,1.85,8.31.07.1.13.21.2.32Z"/>
    <path class="cls-3" d="M96.51,49.61c-1.22-.72-2.29-1.63-3.27-2.64-2.64-2.71-4.31-5.94-5.01-9.66,0-.03,0-.06,0-.09,1.14-.06,2.28,0,3.42-.03.2,0,.29.08.27.28,0,.08,0,.16,0,.24-.06,3.19.89,6.11,2.44,8.85.56.98,1.22,1.89,1.95,2.75.08.09.19.17.21.31Z"/>
    <path class="cls-3" d="M106.63,55.44c-3.25-.69-6.1-2.16-8.58-4.36-.36-.32-.74-.64-1.03-1.04.12-.01.21.06.3.12,1.97,1.12,4.07,1.86,6.3,2.23.87.14,1.75.24,2.64.23.37,0,.38,0,.38.36,0,.82-.01,1.64-.02,2.46Z"/>
  </g>
</svg>